<svg xmlns="http://www.w3.org/2000/svg" width="32" height="32" viewBox="0 0 32 32">
  <defs>
    <linearGradient id="g" x1="0" y1="0" x2="0" y2="1">
      <stop offset="0" stop-color="#fb7185"/>
      <stop offset="1" stop-color="#e11d48"/>
    </linearGradient>
  </defs>
  <rect width="32" height="32" rx="7" fill="url(#g)"/>
  <path d="M20.5 11.2c0-1.7-1.5-3-3.9-3-2.6 0-4.3 1.4-4.3 3.4 0 4.2 6.8 2.6 6.8 5.4 0 1.1-1 1.8-2.6 1.8-1.7 0-2.8-.8-2.9-2.2H11c.1 2.7 2.2 4.4 5.4 4.4 3 0 5-1.5 5-3.9 0-4.3-6.8-2.8-6.8-5.4 0-1 .9-1.6 2.2-1.6 1.3 0 2.1.6 2.2 1.5h1.3z" fill="#fff"/>
</svg>
